<svg width="30" height="30" viewBox="0 0 30 30" fill="none" xmlns="http://www.w3.org/2000/svg">
<path opacity="0.4" d="M20.2367 11.0749C19.7492 11.0749 19.3617 10.6874 19.3617 10.1999V8.59988C19.3617 7.37488 18.8367 6.19988 17.9367 5.37488C17.0117 4.53738 15.8242 4.14988 14.5742 4.26238C12.4742 4.46238 10.6367 6.59988 10.6367 8.82488V9.94988C10.6367 10.4374 10.2492 10.8249 9.76171 10.8249C9.27421 10.8249 8.88672 10.4374 8.88672 9.94988V8.82488C8.88672 5.69988 11.4117 2.81238 14.3992 2.52488C16.1367 2.36238 17.8117 2.91238 19.0992 4.08738C20.3742 5.23738 21.0992 6.88738 21.0992 8.59988V10.1999C21.0992 10.6874 20.7117 11.0749 20.2367 11.0749Z" fill="#C4DCFF"/>
<path d="M24.9496 11.2001C23.8996 10.0376 22.1746 9.4751 19.6496 9.4751H10.3497C7.82468 9.4751 6.09968 10.0376 5.04968 11.2001C3.83718 12.5501 3.87468 14.3501 4.01218 15.6001L4.88718 22.5626C5.14968 25.0001 6.13718 27.5001 11.5122 27.5001H18.4871C23.8621 27.5001 24.8496 25.0001 25.1121 22.5751L25.9871 15.5876C26.1246 14.3501 26.1621 12.5501 24.9496 11.2001ZM14.9996 23.2251C12.3872 23.2251 10.2622 21.1001 10.2622 18.4876C10.2622 15.8751 12.3872 13.7501 14.9996 13.7501C17.6121 13.7501 19.7371 15.8751 19.7371 18.4876C19.7371 21.1001 17.6121 23.2251 14.9996 23.2251Z" fill="#C4DCFF"/>
<path opacity="0.4" d="M14.9983 23.225C17.6146 23.225 19.7358 21.104 19.7358 18.4875C19.7358 15.871 17.6146 13.75 14.9983 13.75C12.3818 13.75 10.2607 15.871 10.2607 18.4875C10.2607 21.104 12.3818 23.225 14.9983 23.225Z" fill="#C4DCFF"/>
<path d="M14.2861 20.7999C14.0486 20.7999 13.8111 20.7124 13.6236 20.5249L12.3861 19.2874C12.0236 18.9249 12.0236 18.3249 12.3861 17.9624C12.7486 17.5999 13.3486 17.5999 13.7111 17.9624L14.3111 18.5624L16.3111 16.7124C16.6861 16.3624 17.2861 16.3874 17.6361 16.7624C17.9861 17.1374 17.9611 17.7374 17.5861 18.0874L14.9236 20.5499C14.7361 20.7124 14.5111 20.7999 14.2861 20.7999Z" fill="#C4DCFF"/>
</svg>
