<svg width="30" height="30" viewBox="0 0 30 30" fill="none" xmlns="http://www.w3.org/2000/svg">
<path d="M9.05 2.5H6.675C3.9375 2.5 2.5 3.9375 2.5 6.6625V9.0375C2.5 11.7625 3.9375 13.2 6.6625 13.2H9.0375C11.7625 13.2 13.2 11.7625 13.2 9.0375V6.6625C13.2125 3.9375 11.775 2.5 9.05 2.5Z" fill="#C3DCFF"/>
<path opacity="0.4" d="M23.3373 2.5H20.9623C18.2373 2.5 16.7998 3.9375 16.7998 6.6625V9.0375C16.7998 11.7625 18.2373 13.2 20.9623 13.2H23.3373C26.0623 13.2 27.4998 11.7625 27.4998 9.0375V6.6625C27.4998 3.9375 26.0623 2.5 23.3373 2.5Z" fill="#C3DCFF"/>
<path d="M23.3373 16.7876H20.9623C18.2373 16.7876 16.7998 18.2251 16.7998 20.9501V23.3251C16.7998 26.0501 18.2373 27.4876 20.9623 27.4876H23.3373C26.0623 27.4876 27.4998 26.0501 27.4998 23.3251V20.9501C27.4998 18.2251 26.0623 16.7876 23.3373 16.7876Z" fill="#C3DCFF"/>
<path opacity="0.4" d="M9.05 16.7878H6.675C3.9375 16.7878 2.5 18.2253 2.5 20.9503V23.3253C2.5 26.0628 3.9375 27.5003 6.6625 27.5003H9.0375C11.7625 27.5003 13.2 26.0628 13.2 23.3378V20.9628C13.2125 18.2253 11.775 16.7878 9.05 16.7878Z" fill="#C3DCFF"/>
</svg>
