<svg width="30" height="30" viewBox="0 0 30 30" fill="none" xmlns="http://www.w3.org/2000/svg">
<path opacity="0.4" d="M17.3625 3.59993L11.5 2.67493C6.61249 1.91243 4.34999 3.56243 3.57499 8.44993L2.64999 14.3124C2.14999 17.5124 2.67499 19.5874 4.48749 20.8499C5.43749 21.5249 6.73749 21.9749 8.42499 22.2374L14.2875 23.1624C19.175 23.9249 21.4375 22.2749 22.2125 17.3874L23.125 11.5249C23.275 10.5624 23.3375 9.69993 23.2875 8.93743C23.125 5.81243 21.2875 4.21243 17.3625 3.59993ZM10.3 11.6874C8.83749 11.6874 7.64999 10.4999 7.64999 9.04993C7.64999 7.58743 8.83749 6.39993 10.3 6.39993C11.75 6.39993 12.9375 7.58743 12.9375 9.04993C12.9375 10.4999 11.75 11.6874 10.3 11.6874Z" fill="#C3DCFF"/>
<path d="M25.6248 16.8374L23.7498 22.4749C22.1873 27.1749 19.6873 28.4249 14.9873 26.8624L9.3498 24.9874C6.5123 24.0499 4.9373 22.7499 4.4873 20.8499C5.4373 21.5249 6.7373 21.9749 8.4248 22.2374L14.2873 23.1624C19.1748 23.9249 21.4373 22.2749 22.2123 17.3874L23.1248 11.5249C23.2748 10.5624 23.3373 9.69988 23.2873 8.93738C26.2748 10.5249 26.9248 12.9249 25.6248 16.8374Z" fill="#C3DCFF"/>
<path d="M12.9359 9.05039C12.9359 10.5004 11.7484 11.6879 10.2984 11.6879C8.83594 11.6879 7.64844 10.5004 7.64844 9.05039C7.64844 7.58789 8.83594 6.40039 10.2984 6.40039C11.7484 6.40039 12.9359 7.58789 12.9359 9.05039Z" fill="#C3DCFF"/>
</svg>
