<svg id="Capa_1" enable-background="new 0 0 512 512" height="512" viewBox="0 0 512 512" width="512" xmlns="http://www.w3.org/2000/svg"><g><path d="m391 250-120 40 120 40 120-40z"/><path d="m1 290 120 40 120-40-120-40z"/><path d="m260.743.77c-3.079-1.026-6.408-1.026-9.487 0l-115.256 38.419 120 40 120-40z"/><path d="m136 512 105-35v-155.377l-105 35z"/><path d="m1 466.189c0 6.457 4.131 12.189 10.257 14.23l94.743 31.581v-155.377l-105-35z"/><path d="m271 477 105 35v-155.377l-105-35z"/><path d="m406 512 94.743-31.581c6.125-2.042 10.257-7.774 10.257-14.23v-144.566l-105 35z"/><path d="m136 229 105 35v-158.188l-105-35.001z"/><path d="m376 229v-158.189l-105 35.001v158.188z"/></g></svg>